<?xml version="1.0" standalone="no"?>
<!DOCTYPE svg PUBLIC "-//W3C//DTD SVG 20010904//EN"
 "http://www.w3.org/TR/2001/REC-SVG-20010904/DTD/svg10.dtd">
<svg version="1.0" xmlns="http://www.w3.org/2000/svg"
 width="250.000000pt" height="150.000000pt" viewBox="0 0 250.000000 150.000000"
 preserveAspectRatio="xMidYMid meet">

<g transform="translate(0.000000,150.000000) scale(0.100000,-0.100000)"
fill="#000000" stroke="none">
<path d="M2360 1125 c0 -22 -3 -23 -24 -15 -20 7 -25 5 -29 -11 -4 -14 1 -21
19 -25 23 -6 24 -8 10 -29 -13 -19 -13 -25 -2 -34 10 -8 18 -6 32 10 l18 20
17 -22 c15 -20 19 -21 33 -10 15 13 15 15 -1 33 -17 19 -12 29 20 41 5 1 5 10
2 20 -5 12 -14 15 -31 11 -20 -5 -24 -2 -24 15 0 14 -6 21 -20 21 -15 0 -20
-7 -20 -25z"/>
<path d="M2109 1099 c-33 -67 -37 -183 -9 -287 l23 -83 -34 -35 c-18 -19 -38
-33 -44 -31 -5 2 -15 23 -21 47 -14 58 -31 61 -51 11 -11 -27 -22 -41 -35 -41
-15 0 -18 8 -18 46 0 38 -3 45 -17 42 -10 -2 -19 -12 -21 -22 -2 -11 -19 -42
-37 -70 -18 -28 -45 -73 -61 -101 l-28 -50 -14 84 c-13 80 -13 85 7 121 40 71
51 255 19 324 -22 50 -77 42 -97 -15 -14 -42 -13 -156 3 -246 13 -75 13 -79
-16 -102 -33 -25 -48 2 -48 88 0 42 -4 81 -8 86 -4 6 -37 10 -74 10 l-68 0 0
-58 c0 -69 -21 -114 -56 -123 -35 -9 -39 0 -20 40 20 43 21 90 0 110 -45 45
-96 -13 -92 -104 3 -59 -5 -80 -28 -80 -11 0 -14 16 -14 68 0 38 -3 144 -7
235 -6 158 -7 167 -26 167 -20 0 -20 -5 -14 -150 l7 -150 -24 0 c-36 0 -84
-46 -113 -107 -14 -30 -31 -52 -37 -50 -6 2 -21 22 -34 44 -30 55 -71 72 -118
50 -28 -14 -34 -14 -34 -2 0 14 -37 45 -55 45 -5 0 -36 -23 -68 -50 -64 -55
-92 -62 -101 -27 -6 25 -53 57 -84 57 -24 0 -72 -37 -72 -55 0 -20 -28 -45
-51 -45 -15 0 -19 7 -19 33 0 41 -20 81 -43 85 -46 9 -61 -53 -30 -129 l16
-42 -26 -23 c-15 -13 -33 -21 -41 -18 -19 7 -36 49 -36 88 0 19 -6 38 -13 45
-21 17 -37 -7 -37 -54 0 -50 -20 -81 -45 -71 -15 5 -16 14 -10 54 12 85 11
106 -6 110 -22 4 -79 -45 -79 -69 0 -21 20 -25 38 -7 10 10 11 2 6 -35 -5 -35
-2 -53 10 -72 20 -31 67 -34 95 -6 19 19 20 19 34 -2 10 -15 24 -21 50 -21 39
0 70 22 93 65 9 18 24 29 48 33 29 6 39 2 60 -19 33 -33 96 -35 126 -3 11 12
20 25 20 29 0 4 16 10 36 14 23 4 54 23 83 50 57 53 71 47 71 -31 0 -29 5 -56
11 -59 13 -9 49 23 49 44 0 20 27 61 40 61 5 0 28 -25 50 -55 32 -44 46 -55
68 -55 16 0 33 5 38 10 8 8 19 8 38 0 20 -7 36 -6 62 5 32 13 36 13 54 -5 26
-26 46 -25 75 4 21 21 28 23 53 14 37 -14 82 3 117 44 19 23 25 41 25 79 l0
49 35 0 35 0 0 -70 c0 -86 19 -113 80 -112 3 0 15 3 26 6 20 6 22 1 34 -86 11
-87 11 -97 -10 -157 -25 -77 -20 -132 17 -169 23 -23 26 -24 41 -8 14 14 17
35 14 123 l-3 106 57 99 c41 72 59 97 67 89 14 -14 52 -14 76 -1 14 7 23 5 36
-10 26 -28 59 -25 99 11 l35 30 15 -30 c22 -42 54 -61 103 -61 33 0 50 7 77
30 48 43 71 120 35 120 -5 0 -18 -20 -30 -45 -12 -25 -30 -50 -41 -56 -32 -17
-79 -7 -102 24 -22 30 -23 38 -11 217 8 128 -10 253 -37 258 -11 2 -24 -10
-39 -39z m41 -136 c7 -175 -6 -218 -30 -103 -12 57 -9 135 7 200 l6 25 8 -27
c4 -14 8 -57 9 -95z m-400 -30 c0 -93 -17 -180 -32 -165 -16 16 -23 234 -8
262 12 23 13 23 26 5 9 -12 14 -47 14 -102z m-389 -144 c-5 -35 -20 -61 -32
-53 -9 5 -4 57 8 77 10 17 28 -1 24 -24z m-161 -8 c25 -48 -8 -105 -58 -99
-40 4 -40 38 -2 82 37 41 45 44 60 17z m-841 -48 c0 -31 -2 -34 -9 -18 -12 28
-12 55 0 55 6 0 10 -17 9 -37z m236 -3 c11 -13 14 -20 6 -20 -21 0 -52 21 -46
31 9 14 20 11 40 -11z m-19 -44 l27 -7 -20 -21 c-42 -41 -104 2 -83 57 l10 27
20 -25 c11 -14 32 -28 46 -31z m1164 -353 c0 -48 -3 -64 -10 -53 -16 24 -11
120 6 120 2 0 4 -30 4 -67z"/>
<path d="M670 1078 c0 -112 -37 -127 -115 -44 -55 59 -89 81 -111 72 -13 -5
-37 -50 -58 -111 -7 -18 -9 -16 -22 15 -19 45 -52 80 -76 80 -11 0 -26 -16
-40 -42 l-22 -43 -7 35 c-7 33 -31 60 -54 60 -7 0 -33 -32 -59 -71 -43 -64
-46 -73 -33 -87 14 -13 20 -8 54 47 21 33 42 61 47 61 9 0 4 -75 -10 -137 -5
-26 -3 -33 9 -33 18 0 50 40 92 113 15 26 31 45 35 42 5 -3 23 -42 40 -88 18
-45 36 -86 40 -91 5 -5 14 11 20 35 51 198 49 196 131 114 60 -59 70 -65 107
-65 50 0 62 17 62 89 l0 51 34 0 34 0 4 -76 c3 -60 7 -79 23 -90 29 -21 59
-17 88 14 47 49 28 79 -23 36 -17 -15 -34 -24 -37 -20 -3 3 -9 45 -12 93 l-6
87 -67 0 -68 1 0 -47z"/>
<path d="M913 933 c-18 -7 -16 -52 3 -60 23 -9 51 23 38 44 -12 19 -23 24 -41
16z"/>
</g>
</svg>
